<?xml version="1.0" standalone="no"?>
<!DOCTYPE svg PUBLIC "-//W3C//DTD SVG 20010904//EN"
 "http://www.w3.org/TR/2001/REC-SVG-20010904/DTD/svg10.dtd">
<svg version="1.0" xmlns="http://www.w3.org/2000/svg"
 width="523.000000pt" height="994.000000pt" viewBox="0 0 523.000000 994.000000"
 preserveAspectRatio="xMidYMid meet">
<metadata>
Created by potrace 1.16, written by Peter Selinger 2001-2019
</metadata>
<g transform="translate(0.000000,994.000000) scale(0.100000,-0.100000)"
fill="#000000" stroke="none">
<path d="M3110 9921 c22 -42 -1 -158 -30 -154 -12 2 -15 -9 -15 -52 1 -47 -2
-55 -18 -55 -16 0 -17 -6 -12 -42 6 -50 3 -56 -47 -87 -46 -28 -75 -73 -103
-165 -33 -107 -105 -196 -158 -196 -34 0 -134 91 -156 142 -12 26 -50 91 -86
144 -36 54 -65 103 -65 109 0 7 -9 20 -20 30 -15 14 -29 16 -65 12 -35 -5 -45
-4 -45 8 0 7 -4 16 -9 19 -4 3 -8 -11 -7 -31 1 -53 -28 -57 -51 -9 -9 20 -21
36 -25 36 -5 0 -8 -3 -6 -7 2 -5 13 -25 23 -45 21 -41 14 -63 -11 -32 -14 18
-15 18 -8 -5 4 -14 1 -26 -6 -31 -9 -6 -9 -13 -1 -28 16 -29 14 -62 -4 -68
-10 -4 -12 -10 -7 -18 5 -6 19 -37 31 -69 12 -33 33 -74 46 -91 33 -44 65
-172 65 -262 0 -97 -22 -134 -100 -174 -74 -37 -98 -74 -98 -154 0 -32 -5 -63
-10 -68 -18 -18 -47 -3 -67 35 -11 20 -34 44 -52 52 -35 17 -105 20 -133 5
-48 -26 -43 -125 10 -172 25 -23 39 -28 85 -28 63 0 111 -17 140 -50 32 -36
105 -68 145 -63 31 3 42 -2 87 -45 87 -82 90 -156 11 -259 -32 -42 -47 -53
-78 -58 -45 -8 -112 -57 -140 -103 -24 -38 -51 -56 -115 -72 -86 -22 -135 -90
-121 -166 9 -46 43 -67 93 -59 54 10 111 49 119 83 10 40 34 72 54 72 18 0 40
-56 40 -102 0 -35 56 -85 109 -97 30 -6 57 -22 83 -49 l39 -39 2 -114 c1 -113
-12 -199 -39 -249 -15 -28 -38 -106 -39 -132 0 -9 -3 -20 -7 -24 -5 -4 1 -14
13 -22 20 -14 21 -30 3 -76 -4 -11 -2 -16 7 -14 9 2 13 -5 12 -22 -2 -22 -1
-23 8 -7 19 32 29 7 13 -33 -9 -22 -14 -45 -12 -51 2 -7 12 9 22 35 23 60 49
60 55 1 3 -34 5 -36 10 -15 6 20 14 25 46 27 43 2 85 38 85 73 0 10 22 65 48
121 27 57 54 126 60 152 8 29 33 75 65 117 48 65 55 70 90 70 53 0 129 -71
168 -158 41 -91 73 -128 127 -148 57 -22 62 -28 62 -81 0 -36 2 -41 20 -36 18
5 19 2 14 -25 -4 -17 -1 -32 5 -36 6 -4 11 -15 11 -25 0 -12 7 -18 17 -17 13
1 23 -14 37 -55 18 -53 19 -58 3 -105 -9 -29 -12 -53 -7 -58 6 -6 14 10 22 38
16 59 43 61 43 3 0 -20 3 -37 8 -37 4 0 7 7 7 15 0 30 37 14 69 -30 61 -86 84
-150 86 -244 1 -50 7 -96 15 -111 8 -15 15 -71 18 -142 3 -82 9 -121 18 -129
19 -15 18 -93 -2 -181 -9 -39 -14 -95 -12 -127 4 -51 10 -64 71 -144 l67 -89
-7 -75 c-5 -57 -3 -74 5 -69 7 4 12 36 12 80 0 61 3 75 18 80 9 3 25 11 34 18
25 18 37 2 58 -78 12 -44 20 -63 25 -53 3 9 -3 43 -14 75 -27 76 -27 124 1
159 17 22 19 31 10 44 -23 31 -24 42 -9 59 13 14 14 24 5 57 -6 22 -11 60 -10
85 0 25 0 69 1 97 0 38 7 63 25 90 13 21 27 56 31 77 16 95 101 199 172 212
39 7 89 -11 103 -37 6 -10 10 -35 10 -57 0 -41 17 -64 57 -76 29 -9 35 -29 21
-81 -11 -42 -11 -44 20 -80 30 -33 32 -40 26 -83 -5 -40 -3 -50 15 -66 34 -31
28 -75 -16 -112 l-38 -32 39 -16 39 -16 -6 -55 c-4 -44 -3 -55 9 -55 8 0 22
-16 31 -35 20 -41 31 -43 84 -12 l39 22 42 -24 c34 -19 56 -24 105 -23 106 3
143 30 151 110 3 37 -3 66 -29 132 -20 54 -35 113 -39 160 -4 41 -15 91 -25
110 -13 24 -18 54 -17 95 1 33 3 108 5 167 2 114 16 151 65 173 19 8 20 15 16
88 -2 44 -6 83 -9 88 -3 4 2 37 11 71 14 55 15 79 4 198 -6 74 -20 178 -30
230 -14 67 -20 145 -21 263 l-1 168 46 97 c26 53 67 127 93 164 37 54 51 89
79 195 66 248 53 381 -30 318 -11 -8 -39 -15 -63 -15 -31 0 -45 -5 -50 -16 -3
-10 -13 -14 -25 -11 -11 3 -27 -2 -39 -14 -23 -23 -55 -25 -67 -2 -9 14 -11
14 -21 -5 -6 -12 -27 -38 -47 -59 -20 -21 -55 -67 -79 -103 -23 -36 -52 -73
-63 -83 -27 -24 -87 -33 -118 -17 -33 18 -71 102 -79 176 l-7 61 -43 -5 c-40
-4 -45 -2 -57 22 -9 22 -9 37 0 73 14 52 5 73 -34 73 -21 0 -24 5 -24 38 0 20
-3 61 -6 90 -7 52 -6 52 25 63 35 12 37 22 16 72 -8 20 -15 48 -15 61 0 33 40
61 75 52 l25 -6 -1 82 c-1 94 15 144 57 177 15 12 38 21 51 21 38 0 91 -29
114 -62 12 -16 49 -51 83 -79 33 -27 69 -57 79 -66 16 -16 18 -15 31 2 10 14
20 16 42 11 16 -4 40 -8 54 -8 14 0 30 -3 35 -7 6 -4 46 -7 90 -7 l80 1 3 35
c6 54 -16 134 -72 265 -43 100 -61 130 -112 185 -77 82 -144 174 -165 225 -25
60 -49 246 -49 378 l0 117 -696 0 c-652 0 -698 -1 -710 -17 -13 -17 -15 -17
-25 0 -14 24 -33 22 -19 -2z m-128 -802 c8 -12 29 -27 48 -33 26 -8 38 -20 48
-48 16 -42 9 -108 -12 -108 -25 0 -96 94 -96 128 0 11 -9 22 -20 25 -27 7 -28
57 -1 57 10 0 25 -10 33 -21z m753 -211 c-10 -57 -8 -88 8 -106 7 -9 11 -41
10 -81 -1 -62 -4 -70 -38 -106 -20 -22 -39 -51 -42 -65 -9 -37 -13 -42 -29
-29 -8 6 -14 29 -14 51 0 26 -8 50 -25 72 -14 18 -25 48 -27 70 -2 32 2 42 25
58 16 12 27 29 27 43 0 16 8 26 28 33 18 6 33 22 42 43 27 69 46 78 35 17z
m166 -175 c7 -96 20 -122 37 -74 16 46 42 41 42 -8 0 -22 -5 -52 -10 -66 -7
-19 -7 -45 2 -87 l12 -59 -32 -30 c-38 -35 -37 -47 4 -69 27 -16 29 -21 34
-93 3 -42 11 -82 18 -89 14 -14 17 -98 3 -98 -5 0 -18 11 -29 25 -25 31 -32
23 -32 -36 0 -26 -5 -51 -12 -55 -14 -9 -58 40 -58 65 0 10 -12 39 -26 65 -22
39 -25 54 -20 91 8 47 -5 65 -30 44 -12 -10 -22 -10 -51 0 -31 12 -37 11 -57
-8 -17 -16 -35 -21 -73 -21 -34 0 -58 -6 -73 -18 -20 -16 -21 -21 -9 -40 12
-19 12 -24 -1 -32 -8 -6 -24 -9 -35 -7 -18 2 -20 -5 -23 -60 -2 -35 -6 -63
-10 -63 -4 0 -13 20 -20 45 -7 25 -16 45 -22 45 -5 0 -10 9 -10 21 0 30 -18
59 -37 59 -9 0 -35 -16 -59 -36 -24 -19 -56 -36 -71 -37 l-28 -2 4 65 c3 64
20 100 46 100 7 0 18 7 25 15 10 12 7 16 -16 26 -54 21 -59 26 -66 65 -5 21
-11 54 -14 72 -6 30 -5 32 22 32 16 0 46 -12 67 -26 23 -15 48 -24 65 -22 24
3 27 8 30 45 2 23 10 47 18 53 8 7 14 30 14 53 0 58 21 33 28 -33 l5 -50 34 6
c34 6 35 6 32 -22 -6 -50 6 -57 83 -49 49 4 74 3 84 -6 12 -10 21 -9 44 5 16
9 42 16 57 14 l28 -3 -3 61 c-2 40 2 75 12 99 9 21 16 48 16 61 0 40 18 74 40
74 11 0 20 -3 21 -7z m-933 -89 c19 -13 72 -108 72 -129 0 -4 12 -23 26 -42
23 -30 25 -39 18 -89 -4 -38 -12 -57 -23 -61 -23 -9 -61 -44 -61 -59 0 -13 48
-48 68 -49 14 0 42 -65 42 -98 0 -10 -6 -28 -14 -40 -14 -20 -30 -74 -43 -138
-8 -40 -46 -84 -67 -76 -17 7 -17 9 -2 32 9 13 16 44 16 69 0 25 4 56 10 71 7
19 6 37 -6 68 -9 23 -17 60 -17 82 -2 38 -3 40 -31 37 -17 -2 -43 -12 -58 -24
-25 -17 -28 -24 -22 -54 5 -26 2 -40 -12 -55 -13 -15 -15 -22 -6 -31 7 -7 12
-18 12 -26 0 -7 12 -38 26 -68 37 -78 22 -87 -55 -33 -57 40 -61 42 -79 26
-10 -9 -23 -17 -28 -17 -5 0 -15 -9 -22 -21 -18 -29 -66 -23 -70 9 -2 13 4 32
12 41 19 21 12 31 -21 31 -31 0 -38 22 -17 55 25 38 5 55 -32 26 l-28 -22 -28
29 c-25 25 -28 32 -18 56 15 40 12 93 -6 121 -15 23 -15 27 6 60 23 36 38 43
57 24 14 -14 43 -5 43 14 0 8 -7 20 -15 27 -23 19 -18 38 16 56 l31 16 -22 15
c-32 23 -24 67 13 71 16 2 36 -3 46 -12 10 -9 31 -18 47 -22 27 -5 36 0 76 45
54 60 72 65 65 19 -7 -43 -27 -119 -37 -138 -5 -10 1 -23 17 -38 19 -18 23
-29 18 -52 -6 -26 -3 -31 31 -45 20 -8 45 -15 55 -15 25 0 39 29 27 56 -7 16
-7 32 1 55 15 43 13 80 -4 103 -8 11 -15 36 -15 55 0 22 -8 43 -21 57 -12 12
-18 27 -14 33 8 15 17 14 43 -5z m740 -518 c11 -18 33 -41 49 -51 45 -26 68
-125 43 -189 -7 -19 -5 -37 7 -70 17 -46 10 -76 -11 -42 -28 46 -49 66 -70 66
-15 0 -25 9 -33 29 -7 19 -19 30 -34 33 -20 2 -24 9 -27 46 -2 30 3 53 17 76
17 26 19 42 14 84 -5 43 -3 52 10 52 8 0 24 -15 35 -34z m-527 -546 c16 -54 2
-99 -41 -127 -18 -13 -42 -37 -52 -54 -15 -25 -21 -29 -33 -19 -21 17 -19 38
5 52 12 8 20 24 20 39 0 50 54 149 81 149 5 0 14 -18 20 -40z m1473 -952 c8
-13 17 -41 21 -63 4 -22 11 -52 17 -66 11 -32 -3 -65 -51 -116 -33 -37 -39
-39 -65 -20 -36 27 -33 193 4 255 23 38 53 42 74 10z"/>
<path d="M24 8828 c-5 -7 -2 -9 9 -5 24 9 40 -18 33 -55 -8 -39 -23 -58 -47
-58 -18 0 -19 -8 -17 -103 3 -97 4 -104 23 -103 26 2 35 -11 35 -54 0 -36 -32
-100 -50 -100 -19 0 -10 -28 10 -33 24 -6 27 -53 5 -83 -21 -28 -18 -40 5 -19
24 22 35 76 21 103 -7 14 -7 24 4 38 7 10 15 17 17 14 2 -3 15 -27 28 -54 44
-87 53 -101 57 -89 3 7 -5 26 -16 42 -26 37 -54 101 -47 109 3 2 11 0 18 -5 7
-6 29 -13 49 -16 33 -5 36 -4 32 18 -4 16 2 28 19 39 19 14 21 18 8 26 -11 7
-17 4 -23 -12 -6 -17 -10 -18 -22 -8 -9 8 -15 8 -15 2 0 -6 5 -12 12 -14 19
-7 -1 -28 -27 -28 -30 0 -37 14 -64 120 -12 46 -33 102 -47 123 -21 32 -23 41
-12 48 18 12 38 11 38 -1 0 -5 4 -10 10 -10 5 0 7 7 4 15 -5 11 1 15 25 15 36
0 68 -39 56 -67 -6 -16 -8 -16 -18 5 -15 32 -42 24 -42 -13 0 -24 5 -31 24
-33 50 -7 69 67 28 106 -13 12 -31 22 -40 22 -28 0 -32 29 -8 54 26 27 26 36
3 36 -9 0 -23 9 -30 20 -14 22 -37 26 -48 8z"/>
<path d="M37 7543 c-8 -16 -12 -34 -10 -41 3 -7 -1 -10 -11 -6 -12 4 -16 0
-16 -16 0 -16 4 -20 15 -16 26 10 31 -25 7 -45 -29 -23 -28 -39 3 -39 14 0 43
-6 65 -12 38 -12 40 -15 40 -54 0 -28 6 -47 20 -59 11 -10 20 -13 20 -7 0 25
20 10 28 -20 7 -28 13 -34 40 -36 18 -2 32 -7 32 -13 0 -5 5 -9 11 -9 6 0 8 7
5 16 -4 9 -1 23 5 30 13 16 -2 19 -18 3 -6 -6 -21 -9 -34 -7 -31 4 -40 55 -13
75 27 20 8 28 -21 9 -40 -26 -57 -14 -53 36 l3 43 60 0 c33 0 67 -3 75 -5 10
-3 14 1 12 13 -2 10 6 20 19 26 15 5 18 10 11 15 -7 4 -10 17 -6 33 5 19 3 24
-7 21 -8 -3 -14 -13 -15 -24 -3 -52 -9 -54 -130 -54 l-114 0 0 30 c0 25 4 30
25 30 14 0 25 -4 25 -10 0 -5 10 -10 23 -10 20 1 21 2 5 14 -10 7 -18 24 -18
37 -1 22 -2 23 -14 7 -29 -38 -64 -13 -52 37 5 21 12 24 64 28 l57 3 -62 2
c-59 2 -63 0 -76 -25z"/>
<path d="M72 7174 l-19 -28 -12 22 c-13 24 -41 30 -41 8 0 -7 7 -19 15 -26 18
-15 22 -199 4 -231 -5 -11 -8 -28 -6 -37 4 -14 6 -13 12 5 5 15 17 23 39 26
29 4 29 4 8 12 -21 7 -23 13 -20 69 3 60 3 61 33 61 27 0 30 -4 33 -32 4 -39
13 -42 28 -9 8 18 8 25 -4 32 -21 13 -6 54 19 54 10 0 19 5 19 10 0 17 -36 11
-55 -10 -24 -26 -41 -25 -49 3 -9 33 -8 35 17 39 16 2 22 10 22 27 0 34 -19
37 -43 5z"/>
<path d="M3081 6664 c-11 -36 -24 -53 -59 -78 -24 -17 -51 -36 -58 -41 -35
-25 -51 -182 -25 -233 5 -9 12 -25 15 -35 8 -26 48 -18 62 13 6 14 22 47 35
75 18 36 24 68 26 120 0 38 8 103 17 143 19 85 18 82 8 82 -4 0 -14 -21 -21
-46z"/>
<path d="M2200 6060 c-12 -16 -22 -39 -23 -50 -1 -22 73 -180 84 -180 5 0 21
11 36 24 25 22 28 31 28 88 0 106 -21 148 -75 148 -20 0 -35 -9 -50 -30z"/>
<path d="M3050 5880 c0 -6 -8 -14 -17 -17 -39 -14 -81 -55 -98 -96 -9 -23 -21
-50 -26 -59 -5 -10 -9 -29 -9 -42 0 -14 -4 -36 -10 -50 -15 -40 -21 -235 -9
-300 6 -32 8 -60 6 -62 -2 -2 -24 7 -48 20 -111 61 -232 83 -357 65 -113 -16
-161 -37 -226 -99 l-54 -51 -19 31 c-14 25 -23 30 -48 28 -26 -3 -32 -9 -44
-47 -13 -41 -12 -47 11 -95 l25 -50 16 29 c23 42 21 22 -2 -23 -11 -21 -35
-83 -55 -139 -42 -123 -60 -159 -85 -172 -24 -13 -45 -65 -38 -92 3 -12 2 -18
-3 -13 -4 5 -10 18 -13 29 -3 11 -5 3 -6 -18 -1 -34 3 -41 45 -70 55 -37 96
-72 74 -61 -10 4 -11 4 -5 -3 18 -17 229 -111 288 -128 41 -12 57 -21 53 -31
-7 -18 -3 -21 184 -90 91 -34 221 -86 290 -117 69 -30 217 -84 330 -120 113
-36 305 -98 426 -136 122 -39 229 -71 238 -71 9 0 16 8 16 19 0 17 8 15 90
-15 89 -34 210 -64 255 -64 13 0 29 -8 34 -19 7 -13 18 -17 36 -14 14 3 31 1
38 -5 14 -12 57 2 57 19 0 6 9 22 20 36 25 33 25 69 -1 135 -19 49 -20 64 -13
233 l7 180 41 30 c32 24 42 40 48 70 8 49 2 76 -17 69 -7 -3 -23 4 -35 16 -23
23 -23 23 -81 -8 -3 -1 -14 18 -23 43 -10 24 -21 47 -26 50 -4 2 3 -23 17 -56
43 -106 53 -179 53 -391 0 -156 3 -206 16 -237 24 -60 17 -83 -28 -88 -29 -3
-39 1 -48 17 -7 13 -21 20 -40 20 -17 0 -30 5 -30 10 0 6 -36 10 -88 10 -119
0 -221 27 -361 96 -184 92 -286 177 -373 314 -19 31 -43 63 -53 73 -10 11 -19
38 -21 68 -2 27 -5 53 -6 57 -1 4 24 60 56 126 45 92 73 134 125 189 36 38 56
65 45 59 -52 -28 -137 -138 -191 -249 -30 -62 -58 -115 -64 -118 -11 -7 -104
21 -136 41 -20 13 -23 24 -25 82 l-1 67 -6 -55 c-6 -54 -6 -53 -14 39 -18 210
-57 350 -122 436 -31 40 -32 44 -27 118 5 90 21 113 23 35 1 -29 4 -43 6 -30
2 12 9 22 14 22 5 0 9 17 9 39 0 22 6 44 15 51 8 7 20 31 27 54 19 66 28 73
55 40 29 -37 42 -22 18 22 -17 32 -17 36 -3 51 13 12 14 21 6 39 -8 17 -8 39
0 76 19 90 22 117 12 123 -6 3 -10 17 -10 30 0 14 -9 29 -20 35 -11 6 -20 21
-20 34 0 19 -4 23 -19 19 -10 -3 -22 0 -25 6 -9 14 -26 14 -26 1z m-385 -585
l50 -14 -50 5 c-48 5 -46 3 35 -24 77 -26 140 -60 225 -123 24 -18 23 -15 -9
19 -22 23 -68 56 -102 74 -35 18 -61 34 -59 36 2 2 31 -11 65 -29 78 -41 183
-151 221 -232 40 -85 52 -153 47 -281 -3 -97 -7 -118 -31 -168 -54 -110 -139
-151 -311 -151 l-100 1 -65 68 c-36 38 -70 67 -74 66 -5 -1 -6 2 -3 7 3 5 -16
51 -43 102 -27 52 -71 143 -97 202 -34 79 -51 107 -61 103 -11 -4 -13 1 -11
22 3 28 -41 152 -55 152 -10 0 -67 -91 -67 -108 0 -8 8 -26 19 -40 10 -15 62
-114 114 -220 53 -106 109 -212 125 -235 46 -67 45 -66 10 -62 -63 5 -207 81
-190 100 4 5 1 5 -6 1 -18 -11 -89 66 -115 123 -22 50 -36 171 -20 171 6 0 8
12 5 26 -3 17 -1 25 5 21 9 -6 53 124 56 165 1 9 6 14 11 11 5 -4 7 1 3 11 -5
11 -3 15 5 10 8 -5 9 -2 5 10 -4 9 -3 15 2 11 5 -3 19 11 31 31 42 68 132 124
235 147 41 9 152 5 200 -8z m560 -918 l120 -42 50 -82 c28 -45 64 -96 80 -113
37 -38 26 -39 -108 -5 -54 13 -111 22 -126 19 -30 -6 -207 45 -251 72 -14 8
-17 13 -8 10 9 -3 67 -21 129 -40 205 -65 148 -37 -81 40 -124 42 -227 77
-228 79 -2 2 23 9 56 15 33 7 91 29 128 50 38 21 80 39 94 39 14 0 79 -19 145
-42z"/>
<path d="M3690 4901 c-118 -36 -202 -127 -249 -268 -25 -73 -26 -93 -7 -93 13
0 106 173 106 197 0 6 10 23 22 39 19 26 17 25 -16 -6 -43 -40 -59 -68 -92
-160 -14 -38 -21 -50 -18 -30 10 54 57 151 94 193 58 66 106 87 212 93 80 4
103 1 163 -19 87 -30 194 -94 259 -155 42 -40 47 -43 32 -17 -14 25 -11 23 19
-10 39 -44 101 -162 110 -210 5 -28 5 -28 -5 -6 -10 23 -10 23 -73 -31 -82
-71 -149 -125 -205 -167 -41 -31 -44 -35 -28 -47 22 -16 7 -49 -23 -51 -23 -2
-28 16 -8 36 16 17 9 15 -95 -38 -81 -41 -92 -44 -171 -45 -47 0 -83 -4 -81
-8 3 -4 38 -28 78 -53 l74 -46 48 17 c73 24 155 67 260 137 129 86 241 157
248 157 9 0 7 -82 -5 -167 -13 -94 -42 -165 -80 -197 -22 -19 -25 -25 -13 -30
8 -3 13 -2 10 3 -3 4 8 21 24 36 41 39 66 113 79 227 20 179 -21 362 -105 475
-27 35 -30 48 -11 37 6 -4 -13 19 -43 50 -52 54 -68 67 -55 46 10 -17 -2 -12
-49 20 -55 37 -124 69 -191 86 -54 15 -174 17 -215 5z"/>
<path d="M2995 2054 c-39 -31 -74 -59 -78 -63 -6 -6 49 -895 69 -1108 5 -59 7
-63 30 -63 33 0 60 -15 68 -37 6 -14 5 -16 -5 -6 -15 15 -69 17 -69 3 0 -5
-10 -11 -22 -11 -18 -1 -19 -2 -5 -6 9 -2 15 -9 12 -14 -3 -5 0 -6 8 -3 10 4
14 -9 16 -53 4 -108 51 -686 56 -691 3 -3 7 -3 10 -1 2 3 -7 160 -20 349 -14
190 -25 356 -25 370 0 21 8 27 48 40 l48 15 23 -340 c13 -187 24 -353 26 -370
2 -16 4 -38 4 -47 1 -10 8 -18 16 -18 10 0 15 10 15 33 0 17 -27 408 -60 867
-34 459 -66 917 -73 1017 -7 100 -15 184 -18 187 -3 3 -36 -20 -74 -50z"/>
<path d="M4160 1838 c0 -2 62 -151 138 -329 77 -178 194 -453 262 -612 67
-158 120 -294 116 -302 -3 -8 0 -14 5 -12 6 1 68 -130 137 -291 77 -179 129
-288 133 -280 4 7 3 16 -4 20 -7 4 -7 8 -2 8 6 0 5 4 -2 8 -6 4 -13 16 -15 27
-1 11 -9 26 -16 34 -7 7 -11 20 -8 28 4 9 1 11 -5 7 -7 -4 -10 -1 -7 7 3 8 -2
20 -9 28 -8 7 -12 20 -9 27 3 8 2 14 -2 14 -10 0 -45 71 -38 77 3 3 -2 12 -10
20 -8 9 -13 22 -10 30 4 9 1 11 -5 7 -7 -4 -10 -1 -7 7 3 8 -2 20 -9 28 -8 7
-12 20 -9 27 3 8 0 14 -6 14 -6 0 -9 3 -5 6 3 4 0 13 -8 20 -8 8 -12 21 -9 29
4 8 1 15 -6 15 -6 0 -8 4 -5 10 3 5 2 10 -4 10 -6 0 -7 7 -4 17 5 12 3 14 -7
8 -10 -6 -12 -4 -7 8 3 10 2 17 -4 17 -6 0 -7 5 -4 10 3 6 2 10 -4 10 -6 0 -7
7 -4 17 5 12 3 14 -7 8 -10 -6 -12 -4 -7 8 4 10 1 17 -5 17 -6 0 -9 3 -5 6 3
4 -1 13 -9 21 -8 9 -13 22 -10 30 4 9 2 11 -6 7 -7 -5 -9 -2 -5 9 3 9 1 17 -5
19 -6 2 -12 17 -14 33 -1 16 -7 31 -13 33 -5 2 -7 10 -4 19 5 12 3 14 -7 8
-10 -6 -12 -4 -7 8 3 9 2 17 -3 19 -5 2 -10 10 -12 18 -2 8 -5 17 -8 20 -14
14 -39 83 -34 92 5 7 2 8 -6 3 -8 -5 -11 -3 -8 6 3 8 -2 20 -9 28 -8 7 -11 21
-8 29 3 9 3 13 -1 9 -4 -4 -83 169 -175 384 -151 351 -179 414 -179 397z"/>
</g>
</svg>
